<svg xmlns="http://www.w3.org/2000/svg" width="25" height="25" viewBox="0 0 25 25"><defs><style>.a{fill:#ff4040;}</style></defs><path class="a" d="M12.5,0A12.5,12.5,0,1,0,25,12.5,12.493,12.493,0,0,0,12.5,0Zm0,23.333A10.833,10.833,0,1,1,23.333,12.5,10.846,10.846,0,0,1,12.5,23.333Z"/><g transform="translate(11.667 10.243)"><path class="a" d="M239.763,209.777a.833.833,0,0,0-.833.833v7.03a.833.833,0,0,0,1.667,0v-7.03A.833.833,0,0,0,239.763,209.777Z" transform="translate(-238.93 -209.777)"/></g><g transform="translate(10.833 6.061)"><path class="a" d="M223.534,124.122a1.667,1.667,0,1,0,1.667,1.667A1.669,1.669,0,0,0,223.534,124.122Z" transform="translate(-221.867 -124.122)"/></g></svg>