<svg xmlns="http://www.w3.org/2000/svg" width="19.448" height="19.448" viewBox="0 0 19.448 19.448"><defs><style>.a{fill:#34363a;}</style></defs><path class="a" d="M59.128,113.247a2.36,2.36,0,0,1-2.358-2.357.884.884,0,0,0-1.768,0,4.13,4.13,0,0,0,4.126,4.125.884.884,0,0,0,0-1.768Z" transform="translate(-51.761 -103.523)"/><path class="a" d="M19.189,17.939l-6.028-6.028a7.375,7.375,0,1,0-1.25,1.25l6.028,6.028a.884.884,0,0,0,1.25-1.25ZM1.768,7.367a5.6,5.6,0,1,1,5.6,5.6A5.605,5.605,0,0,1,1.768,7.367Z" transform="translate(0)"/></svg>