<?xml version="1.0" encoding="utf-8"?>
<!-- Generator: Adobe Illustrator 24.1.2, SVG Export Plug-In . SVG Version: 6.00 Build 0)  -->
<svg version="1.1" id="instagram_1_" xmlns="http://www.w3.org/2000/svg" xmlns:xlink="http://www.w3.org/1999/xlink" x="0px"
	 y="0px" viewBox="0 0 25 25" style="enable-background:new 0 0 25 25;" xml:space="preserve">
<style type="text/css">
	.st0{fill:#FFFFFF;}
</style>
<path id="Caminho_2934" class="st0" d="M17.6,0H7.4C3.3,0,0,3.3,0,7.4v10.1C0,21.7,3.3,25,7.4,25h10.1c4.1,0,7.4-3.3,7.5-7.4V7.4
	C25,3.3,21.7,0,17.6,0z M22.5,17.6c0,2.7-2.2,4.9-4.9,4.9c0,0,0,0,0,0H7.4c-2.7,0-4.9-2.2-4.9-4.9l0,0V7.4c0-2.7,2.2-4.9,4.9-4.9
	h10.1c2.7,0,4.9,2.2,4.9,4.9c0,0,0,0,0,0L22.5,17.6L22.5,17.6z"/>
<path id="Caminho_2935" class="st0" d="M12.5,6.5c-3.3,0-6,2.7-6,6s2.7,6,6,6s6-2.7,6-6C18.5,9.2,15.8,6.5,12.5,6.5z M12.5,16.1
	c-2,0-3.7-1.6-3.7-3.6s1.6-3.7,3.6-3.7s3.7,1.6,3.7,3.6v0C16.2,14.5,14.5,16.1,12.5,16.1z"/>
<circle id="Elipse_11" class="st0" cx="19" cy="6.1" r="1.6"/>
</svg>
