<svg xmlns="http://www.w3.org/2000/svg" width="64.73" height="45.513" viewBox="0 0 64.73 45.513"><defs><style>.a{fill:#ff4040;}</style></defs><path class="a" d="M59.041,76H5.689A5.7,5.7,0,0,0,0,81.689v34.135a5.7,5.7,0,0,0,5.689,5.689H59.041a5.7,5.7,0,0,0,5.689-5.689V81.689A5.7,5.7,0,0,0,59.041,76Zm-.8,3.793L36.388,101.534a5.689,5.689,0,0,1-8.049,0L6.486,79.793ZM3.793,115.052V82.464l16.39,16.3Zm2.7,2.668,16.383-16.279,2.789,2.774a9.482,9.482,0,0,0,13.406,0l2.792-2.778,16.383,16.279Zm54.449-2.668L44.548,98.767l16.39-16.3Z" transform="translate(0 -76)"/></svg>