<svg xmlns="http://www.w3.org/2000/svg" width="36.779" height="44.083" viewBox="0 0 36.779 44.083"><defs><style>.a{fill:#efefef;}</style></defs><path class="a" d="M97.65,21.235a10.274,10.274,0,0,0,7.508-3.111,10.275,10.275,0,0,0,3.11-7.507,10.275,10.275,0,0,0-3.111-7.507,10.615,10.615,0,0,0-15.014,0,10.274,10.274,0,0,0-3.111,7.507,10.274,10.274,0,0,0,3.111,7.508A10.277,10.277,0,0,0,97.65,21.235Zm-5.68-16.3a8.032,8.032,0,0,1,11.361,0,7.676,7.676,0,0,1,2.354,5.68A7.676,7.676,0,0,1,103.33,16.3a8.031,8.031,0,0,1-11.361,0,7.674,7.674,0,0,1-2.354-5.681,7.675,7.675,0,0,1,2.354-5.68Zm0,0" transform="translate(-79.538 0)"/><path class="a" d="M36.69,259.92a26.226,26.226,0,0,0-.357-2.786,21.945,21.945,0,0,0-.685-2.8,13.833,13.833,0,0,0-1.152-2.612,9.845,9.845,0,0,0-1.736-2.262,7.654,7.654,0,0,0-2.494-1.567,8.619,8.619,0,0,0-3.184-.576,3.232,3.232,0,0,0-1.726.732c-.517.337-1.122.727-1.8,1.159a10.3,10.3,0,0,1-2.326,1.025,9.033,9.033,0,0,1-5.69,0,10.268,10.268,0,0,1-2.324-1.024c-.669-.427-1.274-.818-1.8-1.16a3.228,3.228,0,0,0-1.725-.732,8.608,8.608,0,0,0-3.183.577,7.649,7.649,0,0,0-2.494,1.567,9.848,9.848,0,0,0-1.735,2.262,13.86,13.86,0,0,0-1.151,2.612,22,22,0,0,0-.685,2.8,26.047,26.047,0,0,0-.357,2.786c-.059.842-.088,1.718-.088,2.6a7.32,7.32,0,0,0,2.174,5.538,7.825,7.825,0,0,0,5.6,2.043H29a7.826,7.826,0,0,0,5.6-2.043,7.317,7.317,0,0,0,2.174-5.538c0-.888-.03-1.764-.089-2.6Zm-3.866,6.271A5.269,5.269,0,0,1,29,267.522H7.776a5.269,5.269,0,0,1-3.821-1.331,4.78,4.78,0,0,1-1.372-3.667c0-.826.027-1.642.082-2.425a23.494,23.494,0,0,1,.323-2.509,19.4,19.4,0,0,1,.6-2.469A11.283,11.283,0,0,1,4.527,253,7.3,7.3,0,0,1,5.8,251.326a5.078,5.078,0,0,1,1.659-1.032A5.944,5.944,0,0,1,9.5,249.9c.09.048.252.14.513.31.531.346,1.143.741,1.82,1.173a12.8,12.8,0,0,0,2.92,1.3,11.614,11.614,0,0,0,7.279,0,12.813,12.813,0,0,0,2.921-1.306c.692-.443,1.287-.826,1.819-1.172.261-.17.422-.262.513-.31a5.948,5.948,0,0,1,2.035.393,5.085,5.085,0,0,1,1.659,1.031A7.28,7.28,0,0,1,32.25,253a11.245,11.245,0,0,1,.937,2.123,19.355,19.355,0,0,1,.6,2.469,23.689,23.689,0,0,1,.323,2.509h0c.055.78.082,1.6.083,2.424a4.78,4.78,0,0,1-1.372,3.666Zm0,0" transform="translate(0 -226.022)"/></svg>