<svg xmlns="http://www.w3.org/2000/svg" width="25.587" height="19.448" viewBox="0 0 25.587 19.448"><defs><style>.a{fill:#ff4040;}</style></defs><path class="a" d="M20.222,70.848V61.975A2.479,2.479,0,0,0,17.746,59.5H2.476A2.479,2.479,0,0,0,0,61.975v8.873a2.479,2.479,0,0,0,2.476,2.476H4.7l.047,2.236a.826.826,0,0,0,1.322.642l3.817-2.877h7.861A2.479,2.479,0,0,0,20.222,70.848Zm-10.613.825a.826.826,0,0,0-.5.166L6.362,73.912l-.03-1.431a.825.825,0,0,0-.825-.808H2.476a.826.826,0,0,1-.825-.825V61.975a.826.826,0,0,1,.825-.825h15.27a.826.826,0,0,1,.825.825v8.873a.826.826,0,0,1-.825.825H9.608Zm15.978-4.54v6.809a2.479,2.479,0,0,1-2.476,2.476H20.885l-.044,1.723a.826.826,0,0,1-.825.8c-.329,0-.146.057-4.274-2.528H11.968a.825.825,0,0,1,0-1.651c4.378,0,4.173-.046,4.448.126l2.811,1.76.028-1.081a.825.825,0,0,1,.825-.8h3.031a.826.826,0,0,0,.825-.825V67.134a.826.826,0,0,0-.825-.825.825.825,0,1,1,0-1.651,2.479,2.479,0,0,1,2.476,2.476ZM15.27,64.916a.825.825,0,0,1-.825.825H5.778a.825.825,0,1,1,0-1.651h8.667A.825.825,0,0,1,15.27,64.916Zm-1.5,3.611a.825.825,0,0,1-.825.825H7.274a.825.825,0,0,1,0-1.651h5.675A.825.825,0,0,1,13.774,68.527Z" transform="translate(0 -59.499)"/></svg>