<svg xmlns="http://www.w3.org/2000/svg" viewBox="0 0 1224.99 296"><defs><style>.cls-1,.cls-4{fill:#fff;}.cls-2,.cls-3{fill:#34363a;}.cls-2{stroke:#34363a;stroke-miterlimit:10;}.cls-4{font-size:90px;font-family:SourceSerifPro-Bold, Source Serif Pro;font-weight:700;}.cls-5{letter-spacing:-0.01em;}.cls-6{letter-spacing:-0.01em;}.cls-7{letter-spacing:-0.02em;}.cls-8{letter-spacing:-0.02em;}.cls-9{font-size:36px;fill:#787878;font-family:SFUIDisplay-Light, SF UI Display;font-weight:300;}.cls-10{letter-spacing:-0.11em;}.cls-11{letter-spacing:-0.03em;}.cls-12{letter-spacing:0em;}.cls-13{letter-spacing:-0.01em;}.cls-14{letter-spacing:-0.02em;}</style></defs><g id="Camada_2" data-name="Camada 2"><g id="Camada_1-2" data-name="Camada 1"><circle class="cls-1" cx="148" cy="148" r="148"/><path class="cls-2" d="M124.15,255.69a2.44,2.44,0,0,0,.66-.12,1.11,1.11,0,0,0,.45-.3,1.29,1.29,0,0,0,.31-.59,5,5,0,0,0,.07-1.08l0-5.27a4.6,4.6,0,0,0-.1-1.15,1.13,1.13,0,0,0-.38-.6,1.77,1.77,0,0,0-1-.33v-.16h3.94c.87,0,1.42,0,1.66,0a4.88,4.88,0,0,1,2.56.85,4.69,4.69,0,0,1,1.57,1.84,5.7,5.7,0,0,1,.57,2.5,5.52,5.52,0,0,1-.31,1.87,4,4,0,0,1-.88,1.45,3.61,3.61,0,0,1-2,1,9.83,9.83,0,0,1-1.81.17l-5.28,0Zm3-9.39,0,7.11a5.48,5.48,0,0,0,.08,1.06,1.29,1.29,0,0,0,.3.62,1.82,1.82,0,0,0,1.49.56,3.61,3.61,0,0,0,1.5-.3,3,3,0,0,0,1.12-.94,4.82,4.82,0,0,0,.73-1.45,5.74,5.74,0,0,0,.25-1.73,6.2,6.2,0,0,0-.32-1.93,4.83,4.83,0,0,0-.88-1.59,3.7,3.7,0,0,0-1.9-1.25,5.52,5.52,0,0,0-1.53-.16Z"/><path class="cls-2" d="M143.1,246l.14,2.36h-.17a3,3,0,0,0-.31-1,2.19,2.19,0,0,0-1.42-1,5.74,5.74,0,0,0-1.22-.1h-1.63v4.29h.43a4,4,0,0,0,1-.09,1.1,1.1,0,0,0,.54-.3,1.32,1.32,0,0,0,.29-.5,4.18,4.18,0,0,0,.16-.83h.16v3.83h-.16a4,4,0,0,0-.2-.89,1.65,1.65,0,0,0-.35-.57,1.25,1.25,0,0,0-.56-.33,2.74,2.74,0,0,0-.87-.1h-.41v1.64a11.9,11.9,0,0,0,.06,1.42,2.41,2.41,0,0,0,.19.75,1.58,1.58,0,0,0,.74.75,3,3,0,0,0,1.32.23,3.94,3.94,0,0,0,1.43-.22,2.19,2.19,0,0,0,.95-.68,2.69,2.69,0,0,0,.41-.7,5.16,5.16,0,0,0,.29-1h.17l-.08,2.84-8.53,0v-.17a2.26,2.26,0,0,0,.66-.11,1.35,1.35,0,0,0,.45-.31,1.11,1.11,0,0,0,.3-.58,5.64,5.64,0,0,0,.08-1.08l0-5.27a4.84,4.84,0,0,0-.09-1.09,1.24,1.24,0,0,0-.3-.58,1.11,1.11,0,0,0-.45-.3,2.33,2.33,0,0,0-.67-.11v-.16Z"/><path class="cls-2" d="M144.93,255.74v-3h.16a6.45,6.45,0,0,0,.73,1.78,2.3,2.3,0,0,0,2,1.19,1.82,1.82,0,0,0,1.36-.56,1.94,1.94,0,0,0,.53-1.39,2.5,2.5,0,0,0-.12-.75,2.32,2.32,0,0,0-.32-.65,2.59,2.59,0,0,0-.59-.53,10.41,10.41,0,0,0-1.15-.65,11.64,11.64,0,0,1-1-.57,3.39,3.39,0,0,1-.59-.48,2.38,2.38,0,0,1-.62-1.63,2.86,2.86,0,0,1,.24-1.15,2.9,2.9,0,0,1,.66-1,2.59,2.59,0,0,1,1.79-.7,3.06,3.06,0,0,1,.63.06,6.68,6.68,0,0,1,.76.27l.49.18a1.11,1.11,0,0,0,.23,0c.17,0,.28-.13.33-.37h.17l.06,2.84h-.16c-.14-.45-.25-.8-.34-1a3.83,3.83,0,0,0-.34-.67,2.55,2.55,0,0,0-.77-.82,1.68,1.68,0,0,0-1-.26,1.58,1.58,0,0,0-1.26.54,1.62,1.62,0,0,0-.3.53,1.59,1.59,0,0,0-.11.6c0,.8.52,1.44,1.54,1.92l1,.48a4.55,4.55,0,0,1,1.68,1.21,2.73,2.73,0,0,1,.59,1.73,2.88,2.88,0,0,1-.26,1.26,2.7,2.7,0,0,1-1.11,1.29,3.28,3.28,0,0,1-1.75.46,4.52,4.52,0,0,1-1.77-.36l-.53-.22a.58.58,0,0,0-.19,0,.48.48,0,0,0-.48.34Z"/><path class="cls-2" d="M152.15,255.58a2.61,2.61,0,0,0,.67-.12,1.27,1.27,0,0,0,.45-.3,1.32,1.32,0,0,0,.3-.59,5.5,5.5,0,0,0,.08-1.08l0-5.27a5,5,0,0,0-.11-1.15,1.18,1.18,0,0,0-.37-.6,1.75,1.75,0,0,0-1-.32V246h3.94c.87,0,1.43,0,1.66,0a5,5,0,0,1,2.57.85,4.7,4.7,0,0,1,1.56,1.85,5.75,5.75,0,0,1,.26,4.36,3.89,3.89,0,0,1-.88,1.45,3.55,3.55,0,0,1-2,1.05,9.91,9.91,0,0,1-1.81.17l-5.29,0Zm3-9.39,0,7.11a5.48,5.48,0,0,0,.08,1.06,1.5,1.5,0,0,0,.3.62,1.8,1.8,0,0,0,1.49.56,3.55,3.55,0,0,0,1.5-.3,3,3,0,0,0,1.12-.94,4.5,4.5,0,0,0,.73-1.45,5.74,5.74,0,0,0,.25-1.73,5.82,5.82,0,0,0-.32-1.92,4.77,4.77,0,0,0-.88-1.6,3.7,3.7,0,0,0-1.9-1.25,5.52,5.52,0,0,0-1.53-.16Z"/><path class="cls-2" d="M171.11,245.91l.13,2.36h-.17a2.82,2.82,0,0,0-.31-1,2.12,2.12,0,0,0-.62-.69,2.08,2.08,0,0,0-.8-.35,5.63,5.63,0,0,0-1.21-.1h-1.64l0,4.29h.42a5.25,5.25,0,0,0,1-.09,1.2,1.2,0,0,0,.54-.31,1.32,1.32,0,0,0,.29-.5,3.56,3.56,0,0,0,.16-.83h.17l0,3.83h-.16a3.72,3.72,0,0,0-.2-.88,1.74,1.74,0,0,0-.34-.58,1.3,1.3,0,0,0-.56-.33,3.09,3.09,0,0,0-.88-.1h-.4v1.64c0,.65,0,1.12.06,1.42a2.41,2.41,0,0,0,.19.75,1.6,1.6,0,0,0,.75.75,2.9,2.9,0,0,0,1.31.23,4,4,0,0,0,1.44-.22,2.16,2.16,0,0,0,.94-.68,2.43,2.43,0,0,0,.41-.7,5.83,5.83,0,0,0,.3-1h.16l-.08,2.84-8.53,0v-.17a2.26,2.26,0,0,0,.66-.11,1.25,1.25,0,0,0,.45-.31,1.11,1.11,0,0,0,.3-.58,4.92,4.92,0,0,0,.08-1.08l0-5.27a4.84,4.84,0,0,0-.09-1.09,1.15,1.15,0,0,0-.3-.58,1.11,1.11,0,0,0-.45-.3,2.27,2.27,0,0,0-.67-.11v-.16Z"/><path class="cls-2" d="M126.51,259.25A2.05,2.05,0,0,1,128,260a4.77,4.77,0,0,1,.68.92,6.83,6.83,0,0,1,.57,1.15,7,7,0,0,1,.52,2.55,7,7,0,0,1-.52,2.55,6.48,6.48,0,0,1-.57,1.15,4.68,4.68,0,0,1-.68.91,1.9,1.9,0,0,1-3,0,5.12,5.12,0,0,1-.68-.91,8.2,8.2,0,0,1-.57-1.15,7,7,0,0,1-.52-2.55,7,7,0,0,1,.52-2.55,8.78,8.78,0,0,1,.57-1.15A5.23,5.23,0,0,1,125,260,2.09,2.09,0,0,1,126.51,259.25Zm0,.18a1,1,0,0,0-.6.23,2,2,0,0,0-.52.65,4.34,4.34,0,0,0-.35.84,8.22,8.22,0,0,0-.29,1.05,11.5,11.5,0,0,0,0,4.77A7.92,7.92,0,0,0,125,268a4.09,4.09,0,0,0,.35.84,2,2,0,0,0,.53.65,1,1,0,0,0,.61.22.92.92,0,0,0,.58-.23,2.14,2.14,0,0,0,.52-.64A5.63,5.63,0,0,0,128,268a7.88,7.88,0,0,0,.28-1.06,11.07,11.07,0,0,0,0-4.77,8.16,8.16,0,0,0-.28-1.05,6.12,6.12,0,0,0-.35-.84,2,2,0,0,0-.52-.65A1,1,0,0,0,126.51,259.43Z"/><path class="cls-2" d="M137.24,259.53,133.53,269l-.16.39a1.06,1.06,0,0,1-.29.45.59.59,0,0,1-.41.14.68.68,0,0,1-.46-.16.56.56,0,0,1-.19-.41,1.56,1.56,0,0,1,.19-.59l.16-.29,4.07-7.73h-3.33a3.48,3.48,0,0,0-.63,0,1.13,1.13,0,0,0-.39.15,1.29,1.29,0,0,0-.38.39,6.82,6.82,0,0,0-.4.79l0,.09h-.16l.69-3H132a.48.48,0,0,0,.17.32,1.24,1.24,0,0,0,.49.06Z"/><path class="cls-2" d="M137.52,271.67l4.69-12.76h.49L138,271.67Z"/><path class="cls-2" d="M149.09,269.8h-5.92v-.16a25,25,0,0,0,1.87-1.85,22.78,22.78,0,0,0,1.62-1.94,12.52,12.52,0,0,0,1.36-2.21,4.39,4.39,0,0,0,.41-1.74,2.58,2.58,0,0,0-.7-1.84,1.83,1.83,0,0,0-1.4-.63,1.92,1.92,0,0,0-1.24.44,2,2,0,0,0-.56.75,2.55,2.55,0,0,0-.2,1,1.93,1.93,0,0,0,.6,1.46,1.69,1.69,0,0,0,.57.4,1.45,1.45,0,0,0,.63.15h.18l.05.13a2.27,2.27,0,0,1-1,.29,1.64,1.64,0,0,1-1.16-.48,2,2,0,0,1-.48-.72,2.51,2.51,0,0,1-.17-.92,2.45,2.45,0,0,1,.84-1.91,3.19,3.19,0,0,1,2.19-.76,3.61,3.61,0,0,1,1.33.24,2.64,2.64,0,0,1,1,.69,2.76,2.76,0,0,1,.58.93,3.2,3.2,0,0,1,.19,1.11,4.12,4.12,0,0,1-.8,2.34,8.62,8.62,0,0,1-.93,1.14c-.37.37-.88.83-1.53,1.37-.83.69-1.43,1.2-1.79,1.53h2.75a3.83,3.83,0,0,0,1-.09,1.39,1.39,0,0,0,.64-.38,2.24,2.24,0,0,0,.47-.9l.17,0Z"/><path class="cls-2" d="M154.13,259.25a2.06,2.06,0,0,1,1.5.72,5.23,5.23,0,0,1,.68.92,8.78,8.78,0,0,1,.57,1.15,7,7,0,0,1,.52,2.55,7,7,0,0,1-.52,2.55,8.2,8.2,0,0,1-.57,1.15,5.12,5.12,0,0,1-.68.91,1.9,1.9,0,0,1-3,0,5.12,5.12,0,0,1-.68-.91,6.48,6.48,0,0,1-.57-1.15,7.06,7.06,0,0,1-.53-2.55,7,7,0,0,1,.53-2.55,6.83,6.83,0,0,1,.57-1.15,5.23,5.23,0,0,1,.68-.92A2.05,2.05,0,0,1,154.13,259.25Zm0,.18a1,1,0,0,0-.6.23,2.36,2.36,0,0,0-.52.65,6.12,6.12,0,0,0-.35.84c-.11.35-.21.7-.29,1.05a12,12,0,0,0,0,4.77c.08.36.18.71.29,1.06a5.63,5.63,0,0,0,.35.84,2.23,2.23,0,0,0,.53.65,1,1,0,0,0,.62.22.89.89,0,0,0,.57-.23,2,2,0,0,0,.53-.64,5.63,5.63,0,0,0,.35-.84,9.73,9.73,0,0,0,.28-1.06,11.5,11.5,0,0,0,0-4.77,10.19,10.19,0,0,0-.28-1.05,6.12,6.12,0,0,0-.35-.84,2.19,2.19,0,0,0-.52-.65A1,1,0,0,0,154.13,259.43Z"/><path class="cls-2" d="M162.26,259.38h.17v8.37a3.49,3.49,0,0,0,.11.95,1.16,1.16,0,0,0,.31.56,2.21,2.21,0,0,0,1.17.38v.16h-4.41v-.16a3.44,3.44,0,0,0,.77-.13,1.11,1.11,0,0,0,.45-.3,1,1,0,0,0,.27-.51,4,4,0,0,0,.08-.91v-7.28c-.27,0-.48.05-.62.05a3.76,3.76,0,0,1-.91-.09v-.14h.18a3.16,3.16,0,0,0,1.11-.19,5.36,5.36,0,0,0,1.15-.63Z"/><path class="cls-2" d="M170.36,264.05q.58.33.93.57a5.29,5.29,0,0,1,.6.55,2.77,2.77,0,0,1,.74,1.93,2.68,2.68,0,0,1-.81,2,3,3,0,0,1-2.21.84,3.38,3.38,0,0,1-2.45-.9,2.42,2.42,0,0,1-.79-1.81,2.33,2.33,0,0,1,.87-1.86,7.46,7.46,0,0,1,1.33-.82,4,4,0,0,1-1.35-1,2.61,2.61,0,0,1-.61-1.7,2.46,2.46,0,0,1,.68-1.74,2.7,2.7,0,0,1,1-.62,3.11,3.11,0,0,1,1.19-.22,3.37,3.37,0,0,1,1.09.18,2.58,2.58,0,0,1,.91.5,2,2,0,0,1,.76,1.64,2.24,2.24,0,0,1-.66,1.61A6.68,6.68,0,0,1,170.36,264.05Zm-1.48.64a3.86,3.86,0,0,0-1.08,1.19,3.18,3.18,0,0,0-.35,1.49,2.48,2.48,0,0,0,.57,1.68,2,2,0,0,0,1.58.69,1.77,1.77,0,0,0,1.35-.54,2,2,0,0,0,.42-.71,2.37,2.37,0,0,0,.16-.88,2.43,2.43,0,0,0-.78-1.81A5.92,5.92,0,0,0,168.88,264.69Zm1.13-.78a2.57,2.57,0,0,0,.77-1,3,3,0,0,0,.25-1.26,2.57,2.57,0,0,0-.5-1.62,1.54,1.54,0,0,0-1.27-.63A1.59,1.59,0,0,0,168,260a2,2,0,0,0-.47,1.37,2.2,2.2,0,0,0,.93,1.81A6.12,6.12,0,0,0,170,263.91Z"/><path class="cls-3" d="M189.67,111.52c1.47-2,15.87-9,23.19-11.48-4.39,8.06-14.64,17.09-17.57,18.55C195.78,116.89,193.09,112,189.67,111.52Z"/><path class="cls-3" d="M163.47,128.88l20.94-13.37a4.79,4.79,0,0,1,6.27.95l.36.43a4.78,4.78,0,0,1-.82,6.93L170.73,138a3.25,3.25,0,0,1-4.49-.6L162.78,133A2.82,2.82,0,0,1,163.47,128.88Z"/><path class="cls-3" d="M156.24,135.44c5.37-2,7.07,1.22,5.61,5.12-1,3.17-15.1,13.66-15.87,12.69l-6.34-7.07C138.92,145.26,151.11,137.14,156.24,135.44Z"/><path class="cls-3" d="M124.29,169.34s-8.2,7.17-11.57,10.82a75.46,75.46,0,0,0-5.61,7c-.33.45-.66,1.09-1.32.9s-.59-.89-.62-1.47a5.91,5.91,0,0,0-.49-2.14c-.1-.21-.18-.48-.48-.49s-.41.23-.5.46a8.39,8.39,0,0,1-7,7.91c-3.16.29-6.24-.29-8.46-2.86a10.9,10.9,0,0,1-2.51-9.85,6.84,6.84,0,0,1,6.38-5.51c.71-.07,1.68.12,2-.67s-.48-1.37-1-1.82c-1-.76-.78-1.13.22-1.74,5.14-3.86,21.7-10.44,21.7-10.44Z"/><polygon class="cls-3" points="119.99 179.87 132.04 175.26 89.14 130.69 100.37 126.7 74.13 101.31 104.89 91.8 145.36 130.83 128.54 136.44 166.34 177.58 150.58 183.35 180.62 225.38 119.99 179.87"/><path class="cls-3" d="M166.47,165c2.44-2.2,17.33-14.64,13.91-30.75,3.42-.73,7.32-4.4,8.79-7.08,12.2,1.22,27.1-3.57,32.7-8.06,0,11.48-3.62,26.68-12.93,37.1C197.22,168.68,182.58,168.68,166.47,165Z"/><path class="cls-3" d="M196.75,87.07c-7.06,4.62-19.82,16.25-16,24.29a1.7,1.7,0,0,1-.87,2.27,20.29,20.29,0,0,0-6.9,5.28,1.68,1.68,0,0,1-1.82.6c-11.58-3.43-24.83-1.93-31.68.55a1.7,1.7,0,0,1-2.24-2c2.32-9.28,7-20,15.48-27.59,9.77-8.7,27.58-10.82,43.52-6.46A1.7,1.7,0,0,1,196.75,87.07Z"/><path class="cls-3" d="M100.66,254.45l.75.26a5.1,5.1,0,0,0,.11,3,3.17,3.17,0,0,0,1.31,1.73c.22.12.37.12.47,0a2.4,2.4,0,0,0,.22-.5l5.19-13.46A1.06,1.06,0,0,0,108,244l-.38-.14.3-.78,6,2.31-.3.78-.4-.15a1,1,0,0,0-1.55.63l-5.2,13.46a2.11,2.11,0,0,0-.17.52c0,.15.1.25.34.31a3.09,3.09,0,0,0,2.13-.41,5.17,5.17,0,0,0,2.1-2.19l.75.32L109,263l-9.44-3.65Z"/><path class="cls-3" d="M92.78,241.11l3-4,9,4.73-.39.74-.38-.2a1,1,0,0,0-1.61.45l-6.6,12.48a1.56,1.56,0,0,0-.23,1q.07.36.69.69l.43.22-.39.74-9-4.73,1.62-4.77.71.35a4.78,4.78,0,0,0,.09,3.2,3.81,3.81,0,0,0,2.07,2.64c.42.17.78,0,1.09-.64l3.15-6a2.86,2.86,0,0,0-4.14,1.3l-.58-.3,3.28-6.2.57.3a2.87,2.87,0,0,0,1.26,4.16l3.24-6.14c.24-.45.25-.77,0-1a2.57,2.57,0,0,0-.44-.29,4.07,4.07,0,0,0-3.25,0,4.9,4.9,0,0,0-2.54,1.69Z"/><path class="cls-3" d="M83.35,228.63l3,2.13c.5.35.42,1.27-.22,2.77l-1.75,4.09c-.48,1.55-.28,2.57.61,3L89,235a1,1,0,0,0-.34-1.64l-.35-.25.48-.68,5.31,3.71-.48.69-.35-.25a1.06,1.06,0,0,0-1.66.24L83.5,248.4a1.52,1.52,0,0,0-.35.91,1.16,1.16,0,0,0,.6.77l.39.28-.48.68-5.43-3.8a4.56,4.56,0,0,1-2.08-3.15,4.45,4.45,0,0,1,.85-3.26,4.66,4.66,0,0,1,2.15-1.73,4.61,4.61,0,0,1,3.07,0,5,5,0,0,1,.06-3.51c.42-1.23.82-2.46,1.21-3.7s.32-2-.2-2.4L83,229.2Zm-2.88,12.42-1.94,2.77a2.06,2.06,0,0,0-.35,1.6,2.1,2.1,0,0,0,.89,1.39l1.11.78,4.41-6.29-1.12-.78a2.15,2.15,0,0,0-3,.53Z"/><path class="cls-3" d="M73.21,219.32l2.73,2.51c.45.41.25,1.32-.58,2.72l-2.28,3.82c-.68,1.47-.61,2.51.2,3.11L78,226.39a1,1,0,0,0-.12-1.67l-.32-.29.57-.62,4.77,4.39-.57.61-.31-.29a1.05,1.05,0,0,0-1.68,0l-9.55,10.39a1.45,1.45,0,0,0-.47.87,1.16,1.16,0,0,0,.49.84l.35.32-.57.62-4.87-4.49a4.57,4.57,0,0,1-1.65-3.4,4.41,4.41,0,0,1,1.27-3.12,4.76,4.76,0,0,1,2.36-1.43,4.58,4.58,0,0,1,3,.36,5,5,0,0,1,.53-3.47q.86-1.75,1.68-3.51c.55-1.17.59-2,.12-2.41l-.3-.27Zm-4.5,11.93-2.29,2.49a2,2,0,0,0-.55,1.54,2.11,2.11,0,0,0,.69,1.49l1,.92,5.2-5.65-1-.92a2.15,2.15,0,0,0-3.05.13Z"/><path class="cls-3" d="M61.94,213.65,66.25,211l6.55,7.74-.64.54-.28-.33a1,1,0,0,0-1.66-.19l-10.77,9.12a1.58,1.58,0,0,0-.58.8,1.2,1.2,0,0,0,.39.9l.31.36-.64.54-6.56-7.74L55.66,219l.53.58a4.83,4.83,0,0,0-1.11,3,3.82,3.82,0,0,0,.93,3.23c.33.31.74.24,1.25-.19l5.15-4.36a2.87,2.87,0,0,0-4.33-.34l-.42-.49L63,215.88l.42.49a2.87,2.87,0,0,0-.38,4.33l5.3-4.48c.38-.33.51-.63.37-.89a2.55,2.55,0,0,0-.3-.43,4.07,4.07,0,0,0-3-1.25,4.92,4.92,0,0,0-3,.62Z"/><path class="cls-3" d="M61.35,204l3.7,5.33-.69.48-.25-.36a1,1,0,0,0-1.63-.35l-11.61,8.05a1.46,1.46,0,0,0-.64.74,1.17,1.17,0,0,0,.29.93l.28.39-.69.48-3.7-5.33.69-.47.29.41a1.11,1.11,0,0,0,.75.58,1.44,1.44,0,0,0,.92-.34l11.6-8a1,1,0,0,0,.25-1.65l-.25-.36Z"/><path class="cls-3" d="M54.26,191.57,56,194.82c.29.53-.18,1.33-1.42,2.39l-3.38,2.89c-1.11,1.18-1.38,2.18-.8,3l6.06-3.33a1,1,0,0,0,.42-1.62l-.21-.38.73-.4,3.12,5.68-.73.41-.21-.38a1,1,0,0,0-1.59-.52l-12.38,6.79a1.48,1.48,0,0,0-.72.67,1.21,1.21,0,0,0,.2,1l.23.41-.74.41L41.44,206a4.57,4.57,0,0,1-.48-3.75,4.43,4.43,0,0,1,2.21-2.55,4.68,4.68,0,0,1,2.69-.6,4.55,4.55,0,0,1,2.77,1.31,5.06,5.06,0,0,1,1.62-3.12c.91-.92,1.82-1.85,2.71-2.78s1.19-1.69.89-2.25l-.2-.36Zm-8.08,9.86-3,1.63a2,2,0,0,0-1,1.28,2.06,2.06,0,0,0,.18,1.63l.65,1.2,6.74-3.69-.66-1.2a2.16,2.16,0,0,0-2.93-.85Z"/><path class="cls-3" d="M41.46,183.35a11.44,11.44,0,0,1,7-.74,4.94,4.94,0,0,1,3.69,2.92,4.74,4.74,0,0,1-.75,4.53,11.74,11.74,0,0,1-5.73,4.14,14.24,14.24,0,0,1-6,1c-2.56-.15-4.19-1.11-4.88-2.9s-.17-3.6,1.57-5.49A13.46,13.46,0,0,1,41.46,183.35Zm1.09,2.79a19.77,19.77,0,0,0-5.12,2.54c-1.53,1.12-2.09,2.22-1.67,3.27s1.45,1.34,3.25,1.17a20.15,20.15,0,0,0,5.33-1.47,36.76,36.76,0,0,0,4.53-2.1q3.14-1.89,2.46-3.69t-4.16-1.12A32.9,32.9,0,0,0,42.55,186.14Z"/><path class="cls-3" d="M36.41,160.38a11.32,11.32,0,0,1,6.26.46,5.86,5.86,0,0,1,3.7,4.79l.94,5.61-.83.14-.07-.43c-.13-.8-.57-1.14-1.33-1l-13.92,2.32a1.52,1.52,0,0,0-.91.39,1.19,1.19,0,0,0-.12,1l.07.47-.82.14-.89-5.36a6.4,6.4,0,0,1,.41-3.8,6.83,6.83,0,0,1,3-3.09A12.53,12.53,0,0,1,36.41,160.38Zm.45,3q-5.22.82-6.68,2.23a2.87,2.87,0,0,0-.91,2.14,4.33,4.33,0,0,0,.05.58.85.85,0,0,0,1.08.81L45,166.73c.59-.1.77-.66.52-1.69a2.57,2.57,0,0,0-2.36-1.93A21.48,21.48,0,0,0,36.86,163.4Z"/><path class="cls-3" d="M39.77,147l5,.58.42,10.14-.84,0,0-.43c0-.81-.43-1.2-1.19-1.17L29,156.74a1.48,1.48,0,0,0-.94.28,1.17,1.17,0,0,0-.25.95l0,.47-.84,0-.41-10.14,4.94-1,.05.79a4.84,4.84,0,0,0-2.72,1.69A3.8,3.8,0,0,0,27.63,153c.07.44.44.65,1.11.62l6.74-.27a2.88,2.88,0,0,0-3.21-2.94l0-.64,7-.29,0,.65a2.87,2.87,0,0,0-3,3.18l6.93-.28c.51,0,.79-.18.85-.47a3,3,0,0,0,0-.52,4,4,0,0,0-1.6-2.83,4.8,4.8,0,0,0-2.73-1.35Z"/><path class="cls-3" d="M30,122.56l0,.26a1.29,1.29,0,0,0,.33,1,1.79,1.79,0,0,0,1.13.62l11.46,1.82a3.91,3.91,0,0,1,3,2,5.64,5.64,0,0,1-1,6.54,3.93,3.93,0,0,1-3.45,1l-11.88-1.89a1.59,1.59,0,0,0-1,.08,1.17,1.17,0,0,0-.45.88l-.07.47-.78-.12,1-6.36L29,129l-.07.47a1.14,1.14,0,0,0,.14,1,1.58,1.58,0,0,0,.92.38l12.12,1.93a2.68,2.68,0,0,0,2.25-.57,2.88,2.88,0,0,0,1-1.85,2.52,2.52,0,0,0-.49-1.95,2.78,2.78,0,0,0-1.93-1.11L31.27,125.4a1.76,1.76,0,0,0-1.26.25,1.31,1.31,0,0,0-.64.88l0,.24-.78-.13.67-4.2Z"/><path class="cls-3" d="M51.68,110.32l-1.91,6.17-.8-.25.13-.41a1.06,1.06,0,0,0-.73-1.53L37.2,110.85l12.16,7-.27.84-15.63-1.1,11.77,3.64a2.78,2.78,0,0,0,1.43.07,1.25,1.25,0,0,0,1-.8l.07-.23.8.25-1.29,4.16-.8-.25.07-.23a1.16,1.16,0,0,0-.38-1.19,2.57,2.57,0,0,0-1.2-.77l-12.58-3.89a1.55,1.55,0,0,0-1-.06,1.19,1.19,0,0,0-.55.81l-.14.46-.8-.25,1.42-4.61,12.59.92-11-6.22L34.31,105l.8.25-.14.45a1.2,1.2,0,0,0,0,1,1.51,1.51,0,0,0,.84.51l13.49,4.17c.73.23,1.21,0,1.45-.83l.13-.41Z"/><path class="cls-3" d="M52.9,96.74a4.54,4.54,0,0,1,2.5,2.7,5.15,5.15,0,0,1-.39,3.91l-2.82,6-.76-.36.19-.41c.26-.53.26-.94,0-1.21A2.14,2.14,0,0,0,51,107l-12.68-6a1.27,1.27,0,0,0-1-.17,1.36,1.36,0,0,0-.6.72l-.2.41-.75-.36,2.82-6A4.45,4.45,0,0,1,41.42,93a4.73,4.73,0,0,1,3.44.33,3.9,3.9,0,0,1,2.49,4.09A4.52,4.52,0,0,1,50,96.25,5.28,5.28,0,0,1,52.9,96.74Zm-8-.08L42,95.3a2.14,2.14,0,0,0-2.84,1l-.58,1.23,6.77,3.19.58-1.23A2.08,2.08,0,0,0,46,97.89,2.1,2.1,0,0,0,44.89,96.66Zm7.65,3.19-2.92-1.37A2,2,0,0,0,48,98.41a2.1,2.1,0,0,0-1.22,1.1L46,101.09l7.46,3.52.75-1.58a1.84,1.84,0,0,0-.24-1.76A3.42,3.42,0,0,0,52.54,99.85Z"/><path class="cls-3" d="M64.63,86.93l-3.49,5.46-.71-.45.24-.37c.56-.88.56-1.51,0-1.88a1.72,1.72,0,0,0-.41-.19l-3.73-1.28-2.27,3.54L57,94.57a2.17,2.17,0,0,0,.29.2,1,1,0,0,0,1,.12,1.18,1.18,0,0,0,.59-.49L59.1,94l.7.45-2.34,3.67-.71-.45.23-.36c.41-.63.17-1.41-.7-2.32L45.54,83.75a6.34,6.34,0,0,0,.8-2l15.75,5.47a1.86,1.86,0,0,0,.95.18c.21,0,.42-.24.65-.6l.24-.36Zm-8.93,1L47.62,85.1l6,6.06Z"/><path class="cls-3" d="M60.09,65.36l-.13.16a1.22,1.22,0,0,0-.22,1.19,2.38,2.38,0,0,0,.75,1.14L72.3,77.79l-1.17,1.4L55.57,74.9l9.12,7.67A2,2,0,0,0,66,83a1.39,1.39,0,0,0,1.19-.47l.15-.18.65.54-2.93,3.48-.64-.54.15-.18a1.18,1.18,0,0,0,.2-1.17A2.29,2.29,0,0,0,64,83.38l-9.33-7.85c-1.22-1-2.09-1.25-2.59-.65l-.31.36-.64-.54L54,71.32,67.34,75l-7.51-6.32a2,2,0,0,0-1.31-.46,1.44,1.44,0,0,0-1.2.47l-.14.17-.64-.54,2.91-3.46Z"/><path class="cls-3" d="M77,61a11.41,11.41,0,0,1,3,5.5,5.89,5.89,0,0,1-2,5.72l-4.21,3.84-.56-.62.32-.29a1.05,1.05,0,0,0,.13-1.67L64.2,63.07a1.53,1.53,0,0,0-.82-.55,1.2,1.2,0,0,0-.88.42l-.35.32-.57-.61,4-3.67A6.5,6.5,0,0,1,69,57.26a6.9,6.9,0,0,1,4.23.83A12.78,12.78,0,0,1,77,61Zm-2.29,2c-2.36-2.63-4.19-4.09-5.51-4.4a2.88,2.88,0,0,0-2.29.4,3.91,3.91,0,0,0-.45.36.84.84,0,0,0-.1,1.35l10,10.93c.41.45,1,.28,1.7-.48a2.61,2.61,0,0,0,.34-3A21.6,21.6,0,0,0,74.74,63Z"/><path class="cls-3" d="M94.5,59.57l-5.31,3.71-.48-.69.35-.24c.86-.61,1.1-1.19.7-1.75a1.37,1.37,0,0,0-.31-.33l-3-2.61-3.45,2.4,1.47,3.65a2.2,2.2,0,0,0,.19.3,1,1,0,0,0,.86.48,1.16,1.16,0,0,0,.74-.23l.36-.24.48.68-3.57,2.5-.48-.69.35-.25c.62-.43.7-1.23.24-2.41L78.08,49.33a6.63,6.63,0,0,0,1.49-1.5L92,58.91a1.91,1.91,0,0,0,.81.53,1.19,1.19,0,0,0,.83-.31l.35-.25Zm-8.63-2.49-6.39-5.71,3.24,7.9Z"/><path class="cls-3" d="M109.7,48.13a4.92,4.92,0,0,1-.31,3.32A4,4,0,0,1,107,53.6a4.85,4.85,0,0,1-2.32.23,1.34,1.34,0,0,0-.66.05c-.33.15-.53.55-.59,1.2l-.64.28L100,50.2l.66-.28a35.53,35.53,0,0,0,2.7,2.35,3.61,3.61,0,0,0,3.37.55,2.4,2.4,0,0,0,1.55-1.62,2.84,2.84,0,0,0-.22-2.33,4.3,4.3,0,0,0-2.44-2,12.25,12.25,0,0,0-3.15-.59C99.52,46,97.64,45,96.83,43.1a5.15,5.15,0,0,1-.24-3.47,3.82,3.82,0,0,1,2.07-2.71,4,4,0,0,1,2.3-.25,1.2,1.2,0,0,0,.59,0c.23-.1.38-.5.45-1.19l.63-.28,2.54,4.56-.64.28A17.48,17.48,0,0,0,101.94,38a3,3,0,0,0-2.87-.31,2.25,2.25,0,0,0-1.28,1.44,2.5,2.5,0,0,0,.07,1.83q.78,1.8,4.43,2.31a23.14,23.14,0,0,1,4,.77,5.27,5.27,0,0,1,3,2.91A9.57,9.57,0,0,1,109.7,48.13Z"/><path class="cls-3" d="M114.57,28.88a1.58,1.58,0,0,1-.06,1.1,1.21,1.21,0,0,1-.79.66,3.47,3.47,0,0,1-1.25,0,3.68,3.68,0,0,0-1.25,0,.69.69,0,0,0-.54.84l-.39.12a1.64,1.64,0,0,1,0-1.1,1.19,1.19,0,0,1,.79-.65,3.22,3.22,0,0,1,1.25,0,3.86,3.86,0,0,0,1.23,0,.71.71,0,0,0,.57-.85Zm10.08,18.43-6.21,1.86-.24-.8.42-.12c1-.31,1.41-.79,1.21-1.45a1.45,1.45,0,0,0-.19-.4l-2-3.41-4,1.21.25,3.92c0,.13.06.24.09.35a1.07,1.07,0,0,0,.67.73,1.23,1.23,0,0,0,.78,0l.41-.12.24.8-4.17,1.25-.24-.8.41-.12q1.08-.33,1-2.22l-.8-15.55a6.33,6.33,0,0,0,1.88-1l8.38,14.41a1.89,1.89,0,0,0,.6.76,1.19,1.19,0,0,0,.89,0l.41-.12Zm-7.42-5.06-4.29-7.42.61,8.52Z"/><path class="cls-3" d="M135.36,36.48a11.53,11.53,0,0,1-.73,7,4.9,4.9,0,0,1-3.63,3,4.7,4.7,0,0,1-4.28-1.67,11.75,11.75,0,0,1-2.86-6.46,14.15,14.15,0,0,1,.26-6.1q1-3.71,3.84-4.18c1.87-.3,3.55.59,5,2.69A13.43,13.43,0,0,1,135.36,36.48Zm-3,.49A19.91,19.91,0,0,0,131,31.44c-.78-1.73-1.74-2.5-2.85-2.32s-1.62,1.15-1.82,2.94a20.54,20.54,0,0,0,.33,5.52,35.69,35.69,0,0,0,1.12,4.86q1.2,3.47,3.09,3.18c1.24-.21,1.9-1.49,2-3.84A33.62,33.62,0,0,0,132.41,37Z"/><path class="cls-3" d="M155.7,27.67l-.47,0a1.16,1.16,0,0,0-.94.27,1.43,1.43,0,0,0-.27.95l-.3,12.07c-.08,2.89-1.51,4.28-4.32,4.18a5.52,5.52,0,0,1-2.5-.64,2.21,2.21,0,0,1-1.23-2.11,1.66,1.66,0,0,1,.54-1.25,1.73,1.73,0,0,1,1.17-.41,1.71,1.71,0,0,1,1.12.44,1.56,1.56,0,0,1,.49,1.16,2.3,2.3,0,0,1-.39,1.47,1,1,0,0,0,.73.28,1.11,1.11,0,0,0,.82-.49,2,2,0,0,0,.35-1.15l.34-13.63a1.57,1.57,0,0,0-.21-1,1.26,1.26,0,0,0-.93-.31h-.48l0-.81,6.49.16Z"/><path class="cls-3" d="M168,41.61l-1.45,4.82-10-1.35.11-.83.43,0c.81.11,1.26-.21,1.36-1l1.89-14a1.52,1.52,0,0,0-.11-1,1.18,1.18,0,0,0-.89-.41l-.47-.06.11-.83L169,28.41l.12,5-.78-.08a4.87,4.87,0,0,0-1.2-3,3.78,3.78,0,0,0-2.85-1.77c-.45,0-.72.32-.81,1l-.9,6.69A2.88,2.88,0,0,0,166,33.64l.64.08-.94,7-.64-.09a2.86,2.86,0,0,0-2.62-3.46L161.51,44c-.06.51,0,.81.32.91a2.36,2.36,0,0,0,.51.12,4.08,4.08,0,0,0,3.07-1.08,5,5,0,0,0,1.8-2.46Z"/><path class="cls-3" d="M181.14,50.08l-3.59-1c-.58-.15-.83-1-.74-2.67l.24-4.44c-.08-1.62-.62-2.51-1.62-2.66L173.65,46a1,1,0,0,0,.88,1.42l.42.11-.22.8-6.26-1.66.21-.81.42.11c.79.21,1.28,0,1.47-.79l3.63-13.65a1.49,1.49,0,0,0,0-1,1.19,1.19,0,0,0-.83-.52l-.46-.12.21-.81,6.4,1.7a4.57,4.57,0,0,1,3.05,2.25,4.41,4.41,0,0,1,.32,3.35,4.7,4.7,0,0,1-1.42,2.37,4.6,4.6,0,0,1-2.87,1.09,5.05,5.05,0,0,1,1.15,3.33c0,1.29.08,2.59.14,3.88s.4,2,1,2.19l.4.11Zm-1.57-12.65.88-3.27a2.05,2.05,0,0,0-.23-1.62,2.1,2.1,0,0,0-1.31-1l-1.31-.35-2,7.42,1.32.35a2.12,2.12,0,0,0,1.63-.21A2.06,2.06,0,0,0,179.57,37.43Z"/><path class="cls-3" d="M195.92,46.5a11.46,11.46,0,0,1-4.31,5.59,4.92,4.92,0,0,1-4.67.65,4.73,4.73,0,0,1-2.76-3.67,11.76,11.76,0,0,1,1-7A14.39,14.39,0,0,1,188.57,37c1.87-1.74,3.69-2.26,5.46-1.53s2.72,2.37,2.89,4.94A13.4,13.4,0,0,1,195.92,46.5Zm-2.77-1.14a20,20,0,0,0,1.7-5.46c.24-1.88-.16-3-1.21-3.47s-2,.13-3.09,1.55a19.78,19.78,0,0,0-2.62,4.87,38.22,38.22,0,0,0-1.61,4.72c-.53,2.39-.2,3.83,1,4.33s2.39-.27,3.68-2.24A32.56,32.56,0,0,0,193.15,45.36Zm3.48-9.59-.58-.23-1.11-2.4-2.45.93-.6-.24,3.51-1.95Z"/><path class="cls-3" d="M213.37,46.58l-.19-.11a1.22,1.22,0,0,0-1.2,0,2.45,2.45,0,0,0-1,1l-7.64,13.41-1.58-.91,1.4-16.08-5.9,10.37a2.08,2.08,0,0,0-.23,1.36,1.42,1.42,0,0,0,.68,1.09l.21.11-.42.73-3.95-2.25.42-.72.21.11a1.16,1.16,0,0,0,1.17,0,2.35,2.35,0,0,0,1-1l6-10.59c.79-1.39.85-2.28.17-2.67l-.41-.24.41-.72,3.85,2.19-1.17,13.79,4.86-8.53a2,2,0,0,0,.22-1.37,1.45,1.45,0,0,0-.69-1.09l-.19-.11.42-.73,3.92,2.24Z"/><path class="cls-3" d="M210.61,66l-5.27-3.78.49-.68.35.25a1,1,0,0,0,1.65-.22l8.22-11.48a1.57,1.57,0,0,0,.37-.91q0-.37-.6-.78l-.39-.28.49-.68,5.27,3.78-.48.68-.41-.3a1.13,1.13,0,0,0-.91-.29,1.48,1.48,0,0,0-.75.63l-8.22,11.48a1,1,0,0,0,.33,1.64l.35.26Z"/><path class="cls-3" d="M222.82,76.64,218,72.3l.56-.62.32.29a1.06,1.06,0,0,0,1.69,0l7.86-8.66L217,71.35l-.66-.59L224,57.06l-8.28,9.12a2.94,2.94,0,0,0-.67,1.27,1.27,1.27,0,0,0,.3,1.24l.18.16-.56.62-3.23-2.92.56-.62.18.16a1.2,1.2,0,0,0,1.24.16,2.74,2.74,0,0,0,1.22-.77l8.84-9.75a1.51,1.51,0,0,0,.47-.87,1.2,1.2,0,0,0-.5-.84l-.36-.32.57-.62,3.57,3.24-6.16,11,10.27-7.29L235,63.17l-.56.62-.35-.32a1.23,1.23,0,0,0-.89-.42,1.57,1.57,0,0,0-.82.55l-9.48,10.46a1.05,1.05,0,0,0,.13,1.67l.32.29Z"/><path class="cls-3" d="M237.83,80.73a11.37,11.37,0,0,1-6.43,2.93,4.92,4.92,0,0,1-4.42-1.6,4.73,4.73,0,0,1-.73-4.54,11.75,11.75,0,0,1,4.12-5.74,14.19,14.19,0,0,1,5.39-2.87q3.7-1,5.54,1.2c1.22,1.45,1.3,3.36.25,5.71A13.44,13.44,0,0,1,237.83,80.73Zm-1.91-2.3a20.47,20.47,0,0,0,4.05-4c1.09-1.55,1.27-2.77.55-3.63s-1.81-.81-3.46-.08a20,20,0,0,0-4.6,3.08,37.38,37.38,0,0,0-3.62,3.43q-2.37,2.79-1.16,4.28c.8,1,2.24.88,4.3-.26A35.67,35.67,0,0,0,235.92,78.43Z"/><path class="cls-3" d="M245.7,101.36,241,103l-4.84-8.91.74-.4.21.38a1,1,0,0,0,1.58.52l12.42-6.73a1.47,1.47,0,0,0,.72-.66,1.2,1.2,0,0,0-.19-1l-.23-.42.74-.4,4.83,8.92-4,3.06-.4-.68A4.83,4.83,0,0,0,254.24,94a3.76,3.76,0,0,0-.26-3.34c-.25-.37-.67-.4-1.26-.08l-5.93,3.22A2.87,2.87,0,0,0,251,95.05l.31.57L245.1,99l-.3-.57a2.88,2.88,0,0,0,1.25-4.16l-6.1,3.3c-.45.25-.63.51-.55.79a4.25,4.25,0,0,0,.21.49,4,4,0,0,0,2.68,1.83,4.86,4.86,0,0,0,3.05,0Z"/><path class="cls-3" d="M251.36,120.48a4.86,4.86,0,0,1-3.26-.66,4,4,0,0,1-1.89-2.58,4.88,4.88,0,0,1,0-2.34,1.12,1.12,0,0,0,0-.65c-.11-.35-.48-.6-1.13-.73l-.21-.66,5.44-2.26.21.68c-1.49,1.31-2.36,2.12-2.63,2.44A3.62,3.62,0,0,0,247,117a2.41,2.41,0,0,0,1.45,1.72,2.85,2.85,0,0,0,2.34,0,4.27,4.27,0,0,0,2.24-2.21,12.22,12.22,0,0,0,.92-3.07q.84-4.34,3.77-5.25a5.15,5.15,0,0,1,3.48.13,3.85,3.85,0,0,1,2.48,2.36,4,4,0,0,1,0,2.3,1.14,1.14,0,0,0,0,.59c.07.25.45.44,1.13.57l.21.67-4.8,2-.21-.66a16.85,16.85,0,0,0,2.31-2.36,3,3,0,0,0,.62-2.82,2.27,2.27,0,0,0-1.29-1.43,2.54,2.54,0,0,0-1.83-.12c-1.24.39-2.17,1.77-2.77,4.15a22.64,22.64,0,0,1-1.19,3.86,5.32,5.32,0,0,1-3.21,2.7A9.78,9.78,0,0,1,251.36,120.48Z"/><path class="cls-3" d="M250.58,135.44l-1.19-6.37.82-.15.08.42c.2,1,.63,1.49,1.31,1.36a1.58,1.58,0,0,0,.43-.15l3.59-1.62-.77-4.13-3.93-.16-.35,0a1,1,0,0,0-.8.59,1.26,1.26,0,0,0-.09.77l.08.42-.83.15-.8-4.27.82-.16.08.42c.14.74.84,1.15,2.1,1.22l15.55.86a6.41,6.41,0,0,0,.75,2l-15.22,6.8a1.94,1.94,0,0,0-.82.52,1.19,1.19,0,0,0-.06.88l.08.43Zm5.83-6.84,7.83-3.47-8.54-.3Z"/><path class="cls-3" d="M268.65,148.05v-.21a1.22,1.22,0,0,0-.65-1,2.34,2.34,0,0,0-1.34-.32l-15.41.84-.1-1.83L265.43,138l-11.91.65a2,2,0,0,0-1.27.55,1.4,1.4,0,0,0-.55,1.15v.24l-.83,0-.25-4.54.84,0v.24a1.18,1.18,0,0,0,.65,1,2.4,2.4,0,0,0,1.33.33l12.17-.67c1.61-.08,2.39-.52,2.34-1.3l0-.48.83,0,.24,4.42L256.8,146l9.8-.53a2,2,0,0,0,1.27-.56,1.45,1.45,0,0,0,.55-1.17l0-.21.84,0,.25,4.52Z"/><path class="cls-3" d="M263.66,161.8l0-.8a5.09,5.09,0,0,0,2.88-1,3.17,3.17,0,0,0,1.27-1.77c.05-.24,0-.38-.14-.44a2.51,2.51,0,0,0-.55-.06l-14.39-1q-1.14-.08-1.23,1.17l0,.4-.84-.05.43-6.42.84,0,0,.43c0,.81.3,1.25,1.06,1.3l14.4,1a2.46,2.46,0,0,0,.55,0c.14,0,.21-.17.19-.41a3.1,3.1,0,0,0-1-1.92,5.26,5.26,0,0,0-2.71-1.36l.08-.81,4.9,1.15-.68,10.09Z"/><path class="cls-3" d="M248,174.2l1.23-6.36.82.15-.08.43c-.2,1,0,1.61.71,1.74a1.34,1.34,0,0,0,.45,0l3.94-.18.8-4.13-3.59-1.6-.34-.08a1.07,1.07,0,0,0-1,.26,1.22,1.22,0,0,0-.38.68l-.08.42-.82-.16.82-4.27.83.16-.08.42c-.15.74.36,1.37,1.5,1.9l14.15,6.51a5.94,5.94,0,0,0,0,2.11l-16.66.73a2.07,2.07,0,0,0-1,.18,1.24,1.24,0,0,0-.38.81l-.08.42Zm7.93-4.23,8.56-.35-7.83-3.41Z"/><path class="cls-3" d="M245.22,195.14a4.49,4.49,0,0,1-2.62-2.59,5.14,5.14,0,0,1,.21-3.92l2.57-6.11.77.33-.17.42q-.34.81,0,1.2a2.12,2.12,0,0,0,.65.38l12.93,5.43a1.25,1.25,0,0,0,1,.12,1.38,1.38,0,0,0,.57-.74l.18-.42.77.32-2.57,6.11a4.4,4.4,0,0,1-2.73,2.67,4.71,4.71,0,0,1-3.45-.18,3.88,3.88,0,0,1-2.66-4,4.56,4.56,0,0,1-2.57,1.32A5.26,5.26,0,0,1,245.22,195.14Zm.22-3.12,3,1.25a2.18,2.18,0,0,0,2.8-1.16l.68-1.61-7.61-3.2-.68,1.61a1.86,1.86,0,0,0,.32,1.76A3.47,3.47,0,0,0,245.44,192Zm7.78,2.85,3,1.24a2,2,0,0,0,1.63,0A2.08,2.08,0,0,0,259,195l.53-1.26-6.91-2.9-.52,1.26a2.15,2.15,0,0,0,1.15,2.82Z"/><path class="cls-3" d="M233.91,205.45l3.25-5.6.73.42-.22.37c-.53.91-.49,1.54.1,1.88a1.32,1.32,0,0,0,.42.17l3.78,1.12,2.11-3.63-2.86-2.69-.3-.19a1.06,1.06,0,0,0-1-.08,1.33,1.33,0,0,0-.58.52l-.22.38-.72-.42,2.19-3.77.72.42-.22.37c-.37.65-.11,1.41.8,2.29l11.22,10.8a6.42,6.42,0,0,0-.72,2l-16-4.79a2,2,0,0,0-1-.14c-.2,0-.41.26-.62.63l-.22.37Zm8.88-1.38,8.19,2.48-6.27-5.8Zm12.92,8.23-1.6-3.53.39-.68,1.77,3.24Z"/><path class="cls-3" d="M225.51,216.36l2.27-2.93c.37-.48,1.28-.37,2.75.34l4,1.94c1.53.56,2.55.4,3.08-.46L232.14,211a1.06,1.06,0,0,0-1.66.27l-.26.34-.66-.51,4-5.13.66.51-.26.34a1,1,0,0,0,.16,1.66l11.18,8.64a1.48,1.48,0,0,0,.9.39c.25,0,.51-.2.79-.56l.3-.38.66.51-4,5.24a4.58,4.58,0,0,1-3.25,1.94,4.46,4.46,0,0,1-3.21-1,4.74,4.74,0,0,1-1.64-2.23,4.64,4.64,0,0,1,.1-3.07,5,5,0,0,1-3.51-.23c-1.2-.47-2.42-.93-3.63-1.38s-2-.41-2.41.09l-.25.32Zm12.26,3.46,2.68,2.07a2,2,0,0,0,1.58.42,2.09,2.09,0,0,0,1.43-.82l.83-1.08-6.07-4.69-.84,1.08a2.16,2.16,0,0,0,.39,3Z"/><path class="cls-3" d="M220.1,228.44a4.5,4.5,0,0,1-1.45-3.39,5.14,5.14,0,0,1,1.69-3.55l4.68-4.68.59.59-.32.32c-.41.42-.56.8-.42,1.14a2.47,2.47,0,0,0,.45.59l9.92,9.92c.36.36.66.53.91.5a1.44,1.44,0,0,0,.81-.47l.32-.32.59.59-4.69,4.68a4.41,4.41,0,0,1-3.53,1.44,4.74,4.74,0,0,1-3.13-1.47,3.89,3.89,0,0,1-1-4.69,4.53,4.53,0,0,1-2.88.25A5.22,5.22,0,0,1,220.1,228.44Zm1.38-2.81,2.28,2.28a2.15,2.15,0,0,0,3,0l1.24-1.23-5.83-5.84L221,222.06a1.86,1.86,0,0,0-.37,1.75A3.51,3.51,0,0,0,221.48,225.63Zm6.13,5.59,2.26,2.26a2.05,2.05,0,0,0,1.51.62,2.16,2.16,0,0,0,1.52-.63l1-1-5.29-5.29-1,1a2.11,2.11,0,0,0-.64,1.52A2.09,2.09,0,0,0,227.61,231.22Z"/><path class="cls-3" d="M205.73,233.72l5.13-4,.51.66-.34.26c-.83.65-1,1.24-.61,1.78a1.39,1.39,0,0,0,.32.32l3.08,2.46,3.32-2.57-1.63-3.57-.21-.29a1.07,1.07,0,0,0-.89-.44,1.3,1.3,0,0,0-.73.26l-.34.27-.51-.66,3.44-2.67.52.67-.34.26c-.6.46-.64,1.26-.13,2.42l6.31,14.23a6.43,6.43,0,0,0-1.41,1.58l-13-10.47a2,2,0,0,0-.84-.49,1.26,1.26,0,0,0-.82.35l-.34.26Zm8.75,2.07,6.65,5.39-3.62-7.74Z"/><path class="cls-3" d="M193.84,240.65l3.21-1.86c.52-.3,1.33.15,2.42,1.36l3,3.31c1.2,1.09,2.21,1.33,3,.73l-3.48-6a1,1,0,0,0-1.63-.38l-.37.22-.42-.73,5.6-3.25.43.72-.38.22a1,1,0,0,0-.48,1.6l7.09,12.21a1.56,1.56,0,0,0,.69.71,1.22,1.22,0,0,0,.95-.22l.41-.25.42.73-5.73,3.33a4.56,4.56,0,0,1-3.73.56,4.42,4.42,0,0,1-2.6-2.14,4.6,4.6,0,0,1-.67-2.68,4.51,4.51,0,0,1,1.25-2.8,5,5,0,0,1-3.16-1.54c-.95-.89-1.9-1.77-2.86-2.64s-1.71-1.15-2.26-.83l-.35.2Zm10,7.83,1.7,2.93a2.06,2.06,0,0,0,1.31,1,2.11,2.11,0,0,0,1.63-.22l1.18-.69-3.86-6.64-1.18.69a2.14,2.14,0,0,0-.78,2.94Z"/><path class="cls-3" d="M181.37,245.83l6-2.48.32.77-.4.17c-1,.4-1.32.92-1.06,1.55a1.59,1.59,0,0,0,.23.39l2.33,3.18,3.88-1.61-.65-3.87q-.06-.18-.12-.33a1.08,1.08,0,0,0-.74-.67,1.27,1.27,0,0,0-.77.07l-.4.17-.32-.78,4-1.67.32.78-.4.16q-1,.43-.75,2.31l2.37,15.38a6.52,6.52,0,0,0-1.77,1.15L183.65,247a1.9,1.9,0,0,0-.68-.69,1.19,1.19,0,0,0-.88.12l-.4.17Zm7.9,4.28,5,6.95-1.47-8.42Z"/><path class="cls-3" d="M148,285.32A137.36,137.36,0,0,1,94.55,21.47a137.36,137.36,0,0,1,106.9,253.06A136.46,136.46,0,0,1,148,285.32Zm0-268.73c-72.46,0-131.41,59-131.41,131.41S75.54,279.41,148,279.41s131.41-59,131.41-131.41S220.46,16.59,148,16.59Z"/><text class="cls-4" transform="translate(325 153.14)">Ca<tspan class="cls-5" x="103.77" y="0">s</tspan><tspan x="144.09" y="0">a de </tspan><tspan class="cls-6" x="330.75" y="0">X</tspan><tspan x="388.34" y="0">an</tspan><tspan class="cls-7" x="491.57" y="0">g</tspan><tspan x="538.91" y="0">ô e </tspan><tspan class="cls-8" x="675.17" y="0">I</tspan><tspan x="708.29" y="0">an</tspan><tspan class="cls-5" x="811.52" y="0">s</tspan><tspan x="851.84" y="0">ã</tspan></text><text class="cls-9" transform="translate(325 210.14)"><tspan class="cls-10">T</tspan><tspan x="16.88" y="0">er</tspan><tspan class="cls-11" x="46.92" y="0">r</tspan><tspan x="56.97" y="0">ei</tspan><tspan class="cls-11" x="82.72" y="0">r</tspan><tspan x="92.78" y="0">o de Um</tspan><tspan class="cls-12" x="221.31" y="0">b</tspan><tspan x="241.54" y="0">anda São Je</tspan><tspan class="cls-11" x="428.91" y="0">r</tspan><tspan x="438.96" y="0">ônimo e San</tspan><tspan class="cls-13" x="626.91" y="0">t</tspan><tspan x="637.14" y="0">a Bár</tspan><tspan class="cls-12" x="714.5" y="0">b</tspan><tspan x="734.73" y="0">a</tspan><tspan class="cls-14" x="753.15" y="0">r</tspan><tspan x="763.61" y="0">a</tspan></text></g></g></svg>